<svg xmlns="http://www.w3.org/2000/svg" version="1.1" xmlns:xlink="http://www.w3.org/1999/xlink" xmlns:svgjs="http://svgjs.dev/svgjs" width="1500" height="1500" viewBox="0 0 1500 1500"><rect width="1500" height="1500" fill="#000000"></rect><g transform="matrix(0.6666666666666666,0,0,0.6666666666666666,249.39445900059854,563.5399712714234)"><svg viewBox="0 0 396 148" data-background-color="#4b91f1" preserveAspectRatio="xMidYMid meet" height="560" width="1500" xmlns="http://www.w3.org/2000/svg" xmlns:xlink="http://www.w3.org/1999/xlink"><g id="tight-bounds" transform="matrix(1,0,0,1,0.24020576423703233,-0.08189629586421177)"><svg viewBox="0 0 395.52 148.1637858085373" height="148.1637858085373" width="395.52"><g><svg viewBox="0 0 669.865652085026 250.9350500506219" height="148.1637858085373" width="395.52"><g transform="matrix(1,0,0,1,274.345652085026,62.110190766373094)"><svg viewBox="0 0 395.52 126.71466851787571" height="126.71466851787571" width="395.52"><g id="textblocktransform"><svg viewBox="0 0 395.52 126.71466851787571" height="126.71466851787571" width="395.52" id="textblock"><g><svg viewBox="0 0 395.52 126.71466851787571" height="126.71466851787571" width="395.52"><g transform="matrix(1,0,0,1,0,0)"><svg width="395.52" viewBox="1.55 -36.15 144.04 46.15" height="126.71466851787571" data-palette-color="#ffffff"><path d="M11.3-20.9L11.3-20.9Q8-20.9 8-18.95L8-18.95Q8-17.1 11.45-16.2L11.45-16.2 15.4-15.15Q21.5-13.55 21.5-8.1L21.5-8.1Q21.5-4.35 18.88-1.98 16.25 0.4 10.53 0.4 4.8 0.4 1.6-1.2L1.6-1.2Q1.55-1.75 1.55-2.3L1.55-2.3Q1.55-5.05 2.65-7.25L2.65-7.25 6.8-7.25Q7.45-6.05 7.65-4.75L7.65-4.75Q8.65-4.45 10.5-4.45L10.5-4.45Q14.9-4.45 14.9-6.95L14.9-6.95Q14.9-7.75 14.3-8.28 13.7-8.8 11.95-9.3L11.95-9.3 8-10.45Q4.95-11.3 3.25-12.98 1.55-14.65 1.55-17.93 1.55-21.2 4.2-23.3 6.85-25.4 11.78-25.4 16.7-25.4 20.1-23.95L20.1-23.95Q20.15-23.45 20.15-22.95L20.15-22.95Q20.15-20.35 19.05-18.15L19.05-18.15 14.95-18.15Q14.3-19.3 14.1-20.55L14.1-20.55Q12.7-20.9 11.3-20.9ZM23.95-21.15L24.45-25Q27.25-25.65 29.65-25.65 32.05-25.65 33.7-25.5L33.7-25.5 33.7-5.55Q35.65-4.8 36.45-3.85L36.45-3.85 35.95 0 24.45 0 23.95-3.85Q24.65-4.8 26.7-5.55L26.7-5.55 26.7-19.45Q24.95-20.05 23.95-21.15L23.95-21.15ZM30.12-28.45Q25.95-28.45 25.95-32.23 25.95-36 30.12-36 34.3-36 34.3-32.23 34.3-28.45 30.12-28.45ZM38.45-21.15L38.95-25Q41.7-25.6 43.9-25.6 46.1-25.6 47.55-25.5L47.55-25.5 47.55-23Q48.75-24 50.55-24.7 52.35-25.4 53.8-25.4L53.8-25.4Q59.5-25.4 61.4-22.55L61.4-22.55Q62.65-23.75 64.7-24.58 66.75-25.4 68.5-25.4L68.5-25.4Q74-25.4 75.9-22.93 77.8-20.45 77.8-13.65L77.8-13.65 77.8-5.55Q79.75-4.8 80.55-3.85L80.55-3.85 80.05 0 68.55 0 68.05-3.85Q68.75-4.8 70.8-5.55L70.8-5.55 70.8-15.45Q70.8-18.2 70.05-19.1 69.3-20 67.07-20 64.84-20 62.85-18.35L62.85-18.35Q63.1-16.65 63.1-13.65L63.1-13.65 63.1-5.55Q65.05-4.8 65.84-3.85L65.84-3.85 65.34 0 53.84 0 53.34-3.85Q54.05-4.8 56.09-5.55L56.09-5.55 56.09-15.45Q56.09-18.2 55.34-19.1 54.59-20 52.4-20 50.2-20 48.2-18.4L48.2-18.4 48.2-5.55Q50.15-4.8 50.95-3.85L50.95-3.85 50.45 0 38.95 0 38.45-3.85Q39.15-4.8 41.2-5.55L41.2-5.55 41.2-19.45Q39.45-20.05 38.45-21.15L38.45-21.15ZM81.69-21.15L82.19-25Q84.94-25.6 87.14-25.6 89.34-25.6 90.79-25.5L90.79-25.5 90.79-23.05Q94.14-25.4 97.94-25.4L97.94-25.4Q102.94-25.4 105.19-22.55 107.44-19.7 107.44-13.05L107.44-13.05Q107.44-9.5 106.39-6.8 105.34-4.1 103.54-2.6L103.54-2.6Q100.09 0.4 95.34 0.4L95.34 0.4Q93.29 0.4 91.44 0L91.44 0 91.44 4.3Q94.39 5.1 95.24 6.15L95.24 6.15 94.74 10 82.19 10 81.69 6.15Q82.34 5.25 84.44 4.45L84.44 4.45 84.44-19.45Q82.69-20.05 81.69-21.15L81.69-21.15ZM94.84-4.7L94.84-4.7Q97.34-4.7 98.79-6.93 100.24-9.15 100.24-13.08 100.24-17 99.44-18.45 98.64-19.9 96.54-19.9L96.54-19.9Q93.34-19.9 91.44-18.4L91.44-18.4 91.44-5.1Q92.99-4.7 94.84-4.7ZM109.44-31.65L109.94-35.5Q112.74-36.15 115.14-36.15 117.54-36.15 119.19-36L119.19-36 119.19-5.55Q121.14-4.8 121.94-3.85L121.94-3.85 121.44 0 109.94 0 109.44-3.85Q110.14-4.8 112.19-5.55L112.19-5.55 112.19-29.95Q110.44-30.55 109.44-31.65L109.44-31.65ZM135.99 0.4L135.99 0.4Q129.99 0.4 126.96-2.8 123.94-6 123.94-12.1L123.94-12.1Q123.94-15.8 124.99-18.48 126.04-21.15 127.84-22.6L127.84-22.6Q131.34-25.4 135.99-25.4 140.64-25.4 143.11-23.03 145.59-20.65 145.59-14.5L145.59-14.5Q145.59-10.9 142.04-10.9L142.04-10.9 131.19-10.9Q131.39-7.75 132.81-6.45 134.24-5.15 137.34-5.15L137.34-5.15Q139.04-5.15 140.59-5.55 142.14-5.95 142.84-6.35L142.84-6.35 143.54-6.75 145.04-2.75Q144.74-2.4 144.16-1.88 143.59-1.35 141.26-0.48 138.94 0.4 135.99 0.4ZM131.24-15.05L139.14-15.35Q139.24-16.05 139.24-17.05 139.24-18.05 138.44-19.18 137.64-20.3 135.66-20.3 133.69-20.3 132.64-19.1 131.59-17.9 131.24-15.05L131.24-15.05Z" opacity="1" transform="matrix(1,0,0,1,0,0)" fill="#ffffff" class="wordmark-text-0" data-fill-palette-color="primary" id="text-0"></path></svg></g></svg></g></svg></g></svg></g><g><svg viewBox="0 0 244.43135999999998 250.9350500506219" height="250.9350500506219" width="244.43135999999998"><g><svg xmlns:dc="http://purl.org/dc/elements/1.1/" xmlns:cc="http://creativecommons.org/ns#" xmlns:rdf="http://www.w3.org/1999/02/22-rdf-syntax-ns#" xmlns:svg="http://www.w3.org/2000/svg" xmlns="http://www.w3.org/2000/svg" version="1.1" viewBox="6.15625 4.998972592771795 87.67540536723843 90.00822248845869" xml:space="preserve" x="0" y="0" height="250.9350500506219" width="244.43135999999998" class="icon-icon-0" data-fill-palette-color="accent" id="icon-0"><path d="M56.063 5c-0.075 0.002-0.174 0.021-0.251 0.031L48 6.063c-1.212 0.159-2.065 1.256-1.906 2.468l0.687 5.157c-3.62 1.261-6.879 3.174-9.687 5.593L32.938 16.125c-0.97-0.745-2.349-0.564-3.094 0.406l-4.782 6.25c-0.745 0.97-0.564 2.349 0.407 3.094l4.125 3.156c-1.613 3.338-2.623 6.99-2.907 10.813l-5.156 0.687C20.318 40.691 19.466 41.787 19.625 43l1.031 7.844c0.159 1.213 1.256 2.066 2.469 1.906l5.156-0.688c0.242 0.694 0.523 1.363 0.813 2.032 0.267-0.007 0.513 0.001 0.781 0 0.145-0.004 0.292-0.031 0.438-0.032 3.901-0.013 7.646 1.243 11.187 2.813-3.065-3.156-5.164-7.303-5.781-12-1.525-11.601 6.649-22.225 18.25-23.75 11.601-1.525 22.225 6.618 23.75 18.219 1.323 10.064-4.633 19.425-13.813 22.718 1.416 0.258 2.815 0.564 4.188 1 2.344 0.443 4.18 2.145 5.156 4.25 1.091-0.718 2.143-1.528 3.125-2.375L80.5 68.125c0.97 0.745 2.349 0.564 3.094-0.406l4.812-6.25C89.151 60.499 88.97 59.12 88 58.375L83.844 55.188C85.456 51.85 86.467 48.197 86.75 44.375l5.156-0.688c1.212-0.159 2.066-1.256 1.907-2.468l-1.032-7.813C92.622 32.194 91.525 31.341 90.313 31.5l-5.157 0.688C83.895 28.568 81.982 25.276 79.563 22.469l3.156-4.125C83.463 17.374 83.282 15.995 82.313 15.25l-6.251-4.813C75.092 9.693 73.714 9.874 72.969 10.844l-3.188 4.125c-3.337-1.612-6.991-2.592-10.812-2.875L58.313 6.906C58.163 5.769 57.183 4.966 56.063 5zM29.938 56.75C21.878 56.666 13.918 59.955 6.156 62.5l0 18.938c1.914 0.551 8.232 0.823 10.188 1.218 5.681 1.149 10.425 5.014 15.719 7.344 4.557 2.005 9.09 4.908 14.156 5 7.733 0.141 15.303-1.818 22.906-3.031 6.143-0.981 11.675-6.408 15.813-10.844 7.099-7.61-1.754-13.715-8.282-8.25-3.155 2.641-6.816 4.859-11.094 5.313-6.798 0.721-14.288 1.058-20.187-2.782 2.684-1.325 6.433-0.268 9.531-0.25 4.34 0.026 8.772 1.265 13.031 0.407 4.365-0.88 4.702-8.238 0.125-9.75C61.474 63.636 54.441 64.03 47.844 62.281 42.884 60.966 38.591 57.73 33.406 57 32.251 56.837 31.089 56.762 29.938 56.75z" fill="#ffffff" fill-opacity="1" fill-rule="evenodd" stroke="none" marker="none" visibility="visible" display="inline" overflow="visible" text-indent="0" text-transform="none" direction="ltr" block-progression="tb" baseline-shift="baseline" color="#ffffff" enable-background="accumulate" data-fill-palette-color="accent"></path></svg></g></svg></g></svg></g><defs></defs></svg><rect width="395.52" height="148.1637858085373" fill="none" stroke="none" visibility="hidden"></rect></g></svg></g></svg>